# xmcd
# 
# Track frame offsets:
#     182
#     22765
#     38737
#     53645
#     66517
#     78270
#     93822
#     104165
#     118817
#     134932
#     151122
#     174765
#     188202
#     202135
#     211787
#     225475
#     234092
#     250300
#     262230
#     285565
#     296595
#     313050
#     330605
# 
# Disc length: 4664
# 
# Revision: 1
# Processed by: cddbd v1.5.2PL0 Copyright (c) Steve Scherf et al.
# Submitted via: fre:ac v1.1beta1pre5
# 
DISCID=49123617
DTITLE=B. B. King - Collection
DYEAR=1993
DGENRE=Blues
TTITLE0=Every Day I Have the Blues
TTITLE1=Long Nights
TTITLE2=BB Boogie
TTITLE3=I'm Working on the Building
TTITLE4=I Never Heard a Man
TTITLE5=Walkin' and Cryin'
TTITLE6=I'm Willing to Run All the Way
TTITLE7=Mr. Pawnbroker
TTITLE8=It's My Own Fault Baby
TTITLE9=The Other Night Blues
TTITLE10=You've Done Lost You're Good Thing Now
TTITLE11=Army of the Lord
TTITLE12=Save a Seat for Me
TTITLE13=Swing Low Sweet Chariot - Rock Me Lord
TTITLE14=Servant's Prayer
TTITLE15=A New Way of Driving
TTITLE16=The Letter
TTITLE17=Paying the Cost to Be the Boss
TTITLE18=How Blue You Can Get
TTITLE19=Catfish Blues
TTITLE20=Outside Help
TTITLE21=Evil Child
TTITLE22=Sweet Sixteen
EXTD=YEAR: 1993 ID3G:   0
EXTT0=
EXTT1=
EXTT2=
EXTT3=
EXTT4=
EXTT5=
EXTT6=
EXTT7=
EXTT8=
EXTT9=
EXTT10=
EXTT11=
EXTT12=
EXTT13=
EXTT14=
EXTT15=
EXTT16=
EXTT17=
EXTT18=
EXTT19=
EXTT20=
EXTT21=
EXTT22=
PLAYORDER=
